HIERARCHY
ROOT hip
{
  OFFSET 0 0 0
  CHANNELS 6 Xposition Yposition Zposition Zrotation Yrotation Xrotation
  JOINT abdomen
  {
    OFFSET 0 20.6881 -0.73152
    CHANNELS 3 Zrotation Xrotation Yrotation
    JOINT chest
    {
      OFFSET 0 11.7043 -0.48768
      CHANNELS 3 Zrotation Xrotation Yrotation
      JOINT neck
      {
        OFFSET 0 22.1894 -2.19456
        CHANNELS 3 Zrotation Xrotation Yrotation
        JOINT head
        {
          OFFSET -0.24384 7.07133 1.2192
          CHANNELS 3 Zrotation Xrotation Yrotation
          JOINT leftEye
          {
            OFFSET 4.14528 8.04674 8.04672
            CHANNELS 3 Zrotation Xrotation Yrotation
            End Site
            {
              OFFSET 1 0 0
            }
          }
          JOINT rightEye
          {
            OFFSET -3.6576 8.04674 8.04672
            CHANNELS 3 Zrotation Xrotation Yrotation
            End Site
            {
              OFFSET 1 0 0
            }
          }
        }
      }
      JOINT rCollar
      {
        OFFSET -2.68224 19.2634 -4.8768
        CHANNELS 3 Zrotation Xrotation Yrotation
        JOINT rShldr
        {
          OFFSET -8.77824 -1.95073 1.46304
          CHANNELS 3 Zrotation Xrotation Yrotation
          JOINT rForeArm
          {
            OFFSET -28.1742 -1.7115 0.48768
            CHANNELS 3 Zrotation Xrotation Yrotation
            JOINT rHand
            {
              OFFSET -22.5879 0.773209 7.07136
              CHANNELS 3 Zrotation Xrotation Yrotation
              JOINT rThumb1
              {
                OFFSET -1.2192 -0.487915 3.41376
                CHANNELS 3 Zrotation Xrotation Yrotation
                JOINT rThumb2
                {
                  OFFSET -3.37035 -0.52449 3.41376
                  CHANNELS 3 Zrotation Xrotation Yrotation
                  End Site
                  {
                    OFFSET -1.78271 -1.18214 1.43049
                  }
                }
              }
              JOINT rIndex1
              {
                OFFSET -7.75947 0.938293 5.60832
                CHANNELS 3 Zrotation Xrotation Yrotation
                JOINT rIndex2
                {
                  OFFSET -2.54057 -0.884171 1.56538
                  CHANNELS 3 Zrotation Xrotation Yrotation
                  End Site
                  {
                    OFFSET -1.62519 -0.234802 1.16502
                  }
                }
              }
              JOINT rMid1
              {
                OFFSET -8.24714 1.18213 3.41376
                CHANNELS 3 Zrotation Xrotation Yrotation
                JOINT rMid2
                {
                  OFFSET -3.10165 -0.590103 1.0647
                  CHANNELS 3 Zrotation Xrotation Yrotation
                  End Site
                  {
                    OFFSET -2.48547 -0.328903 0.83742
                  }
                }
              }
              JOINT rRing1
              {
                OFFSET -8.82822 0.546677 1.51678
                CHANNELS 3 Zrotation Xrotation Yrotation
                JOINT rRing2
                {
                  OFFSET -2.60934 -0.819778 -0.0198488
                  CHANNELS 3 Zrotation Xrotation Yrotation
                  End Site
                  {
                    OFFSET -2.33842 -0.294052 0.168128
                  }
                }
              }
              JOINT rPinky1
              {
                OFFSET -8.27202 -0.0477905 -0.4584
                CHANNELS 3 Zrotation Xrotation Yrotation
                JOINT rPinky2
                {
                  OFFSET -1.82734 -0.647385 -0.700984
                  CHANNELS 3 Zrotation Xrotation Yrotation
                  End Site
                  {
                    OFFSET -1.69225 -0.51767 -0.607171
                  }
                }
              }
            }
          }
        }
      }
      JOINT lCollar
      {
        OFFSET 2.68224 19.2634 -4.8768
        CHANNELS 3 Zrotation Xrotation Yrotation
        JOINT lShldr
        {
          OFFSET 8.77824 -1.95073 1.46304
          CHANNELS 3 Zrotation Xrotation Yrotation
          JOINT lForeArm
          {
            OFFSET 28.1742 -1.7115 0.48768
            CHANNELS 3 Zrotation Xrotation Yrotation
            JOINT lHand
            {
              OFFSET 22.5879 0.773209 7.07136
              CHANNELS 3 Zrotation Xrotation Yrotation
              JOINT lThumb1
              {
                OFFSET 1.2192 -0.487915 3.41376
                CHANNELS 3 Zrotation Xrotation Yrotation
                JOINT lThumb2
                {
                  OFFSET 3.37035 -0.52449 3.41376
                  CHANNELS 3 Zrotation Xrotation Yrotation
                  End Site
                  {
                    OFFSET 1.78271 -1.18214 1.43049
                  }
                }
              }
              JOINT lIndex1
              {
                OFFSET 7.75947 0.938293 5.60832
                CHANNELS 3 Zrotation Xrotation Yrotation
                JOINT lIndex2
                {
                  OFFSET 2.54057 -0.884171 1.56538
                  CHANNELS 3 Zrotation Xrotation Yrotation
                  End Site
                  {
                    OFFSET 1.62519 -0.234802 1.16502
                  }
                }
              }
              JOINT lMid1
              {
                OFFSET 8.24714 1.18213 3.41376
                CHANNELS 3 Zrotation Xrotation Yrotation
                JOINT lMid2
                {
                  OFFSET 3.10165 -0.590103 1.0647
                  CHANNELS 3 Zrotation Xrotation Yrotation
                  End Site
                  {
                    OFFSET 2.48547 -0.328903 0.83742
                  }
                }
              }
              JOINT lRing1
              {
                OFFSET 8.82822 0.546677 1.51678
                CHANNELS 3 Zrotation Xrotation Yrotation
                JOINT lRing2
                {
                  OFFSET 2.60934 -0.819778 -0.0198488
                  CHANNELS 3 Zrotation Xrotation Yrotation
                  End Site
                  {
                    OFFSET 2.33842 -0.294052 0.168128
                  }
                }
              }
              JOINT lPinky1
              {
                OFFSET 8.27202 -0.0477905 -0.4584
                CHANNELS 3 Zrotation Xrotation Yrotation
                JOINT lPinky2
                {
                  OFFSET 1.82734 -0.647385 -0.700984
                  CHANNELS 3 Zrotation Xrotation Yrotation
                  End Site
                  {
                    OFFSET 1.69225 -0.51767 -0.607171
                  }
                }
              }
            }
          }
        }
      }
    }
  }
  JOINT rButtock
  {
    OFFSET -8.77824 4.35084 1.2192
    CHANNELS 3 Zrotation Xrotation Yrotation
    JOINT rThigh
    {
      OFFSET 0 -1.70687 -2.19456
      CHANNELS 3 Zrotation Xrotation Yrotation
      JOINT rShin
      {
        OFFSET 0 -36.8199 0.73152
        CHANNELS 3 Zrotation Xrotation Yrotation
        JOINT rFoot
        {
          OFFSET 0.73152 -45.1104 -5.12064
          CHANNELS 3 Zrotation Xrotation Yrotation
          End Site
          {
            OFFSET -1.1221 -3.69964 12.103
          }
        }
      }
    }
  }
  JOINT lButtock
  {
    OFFSET 8.77824 4.35084 1.2192
    CHANNELS 3 Zrotation Xrotation Yrotation
    JOINT lThigh
    {
      OFFSET 0 -1.70687 -2.19456
      CHANNELS 3 Zrotation Xrotation Yrotation
      JOINT lShin
      {
        OFFSET 0 -36.8199 0.73152
        CHANNELS 3 Zrotation Xrotation Yrotation
        JOINT lFoot
        {
          OFFSET -0.73152 -45.1104 -5.12064
          CHANNELS 3 Zrotation Xrotation Yrotation
          End Site
          {
            OFFSET 1.1221 -3.69964 12.103
          }
        }
      }
    }
  }
}
MOTION
Frames:	5
Frame Time:	0.00833333
57.109 79.597 220.132 0.0 0.0 0.0 -3.29165 -0.00200289 -0.0897136 -0.910504 0.0108239 -0.157568 2.35764e-14 0.0 6.95746e-16 7.18948e-14 3.18055e-15 2.08724e-15 -0.0 0.0 0.0 -0.0 0.0 0.0 1.20264e-14 1.54136e-16 4.47265e-16 2.51646e-13 3.57812e-15 8.94531e-15 4.29574e-12 -1.18118e-12 1.08139e-13 4.91774e-11 1.86684e-12 1.51712e-12 1.16002e-10 1.48271e-12 3.51769e-12 2.00327e-10 2.55717e-12 6.07247e-12 1.16008e-10 1.48572e-12 3.50815e-12 7.73091 5.47488 0.417314 1.16002e-10 1.48313e-12 3.51133e-12 2.90554 0.965183 0.102902 1.1601e-10 1.48323e-12 3.51769e-12 10.2786 0.731801 0.0259123 1.15997e-10 1.48452e-12 3.52724e-12 2.22167 -0.733487 -0.20892 1.20273e-14 1.56465e-16 1.98785e-16 2.47046e-13 3.06874e-15 6.75868e-15 4.29191e-12 1.39686e-12 1.08139e-13 4.91867e-11 -7.2211e-13 1.52349e-12 1.16013e-10 1.46625e-12 3.52405e-12 2.00358e-10 2.5349e-12 6.08361e-12 1.16008e-10 1.46862e-12 3.53678e-12 -7.73091 5.47488 -0.417314 1.16013e-10 1.46594e-12 3.51769e-12 -2.90554 0.965183 -0.102902 1.1601e-10 1.46653e-12 3.52326e-12 -10.2786 0.731801 -0.0259123 1.16022e-10 1.46862e-12 3.50815e-12 -2.22167 -0.733487 0.20892 -2.03217e-16 0.0 -3.88251e-19 -2.13992 -1.93291 0.0183572 -0.00781315 -2.07877 -0.0636828 -0.356768 4.00069 0.117402 2.03217e-16 0.0 3.88251e-19 -2.88017 -9.67725 0.33893 -0.0100242 11.9465 -0.261592 0.457935 -2.28011 -0.00590303
50.3998 76.1693 206.98 162.647 -5.6376 -165.895 -11.129 -5.94263 1.49948 -2.32059 2.22174 0.514271 4.69606 3.34524 3.82195 -3.63861 -0.535517 6.64916 -0.0 0.0 0.0 -0.0 0.0 0.0 -3.66662e-14 9.67497e-14 3.50649e-14 23.1424 14.5919 0.567154 -4.317 -1.9829 6.72577 0.000276155 -0.368734 -0.0518183 -6.8353e-11 4.94647e-10 -3.22579e-10 -1.20329e-10 8.58491e-10 -5.58868e-10 -6.83473e-11 4.94649e-10 -3.22587e-10 7.73091 5.47488 0.417314 -6.8353e-11 4.94646e-10 -3.22582e-10 2.90554 0.965183 0.102902 -6.8343e-11 4.94646e-10 -3.22579e-10 10.2786 0.731801 0.0259123 -6.83586e-11 4.94648e-10 -3.22572e-10 2.22167 -0.733487 -0.20892 -3.67433e-14 9.67563e-14 3.48005e-14 -16.9592 14.2597 -2.16605 3.90782 -1.71777 -6.1649 -0.320697 -12.6201 1.62223 1.3596e-10 4.89267e-11 1.03636e-10 2.30852e-10 8.61594e-11 1.79724e-10 1.35955e-10 4.89278e-11 1.03646e-10 -7.73091 5.47488 -0.417314 1.35959e-10 4.89252e-11 1.0363e-10 -2.90554 0.965183 -0.102902 1.35958e-10 4.89255e-11 1.03635e-10 -10.2786 0.731801 -0.0259123 1.35968e-10 4.89283e-11 1.03622e-10 -2.22167 -0.733487 0.20892 -2.03217e-16 0.0 -3.88251e-19 -9.99354 -13.9917 2.87973 0.243023 15.0853 0.282144 -2.08787 -0.73035 -9.73695 2.03217e-16 0.0 3.88251e-19 -11.4278 -14.6409 -1.17123 -0.0648612 17.0306 -0.480508 0.574296 -5.58271 -1.0623
50.3965 76.172 206.983 162.635 -5.6359 -165.885 -19.0489 -12.208 3.24366 -3.87495 4.55652 1.22957 9.19358 6.85316 7.92032 -7.37707 -1.134 13.7146 -0.0 0.0 0.0 -0.0 0.0 0.0 -8.54567e-14 2.00387e-13 7.79764e-14 47.2604 30.009 1.29718 -8.37815 -3.98804 13.8617 -0.000156863 -0.757458 -0.106453 -2.99963e-10 1.09991e-09 -7.12953e-10 -5.22836e-10 1.90866e-09 -1.23508e-09 -2.99958e-10 1.09991e-09 -7.12961e-10 7.73091 5.47488 0.417314 -2.99963e-10 1.0999e-09 -7.12954e-10 2.90554 0.965183 0.102902 -2.99951e-10 1.0999e-09 -7.12955e-10 10.2786 0.731801 0.0259123 -2.99969e-10 1.09991e-09 -7.12949e-10 2.22167 -0.733487 -0.20892 -8.56187e-14 2.00398e-13 7.76937e-14 -33.55 29.2789 -4.95423 7.64052 -3.46807 -12.7013 0.196037 -25.9279 3.6216 1.38419e-10 7.66454e-11 2.39597e-10 2.29968e-10 1.3547e-10 4.14535e-10 1.38415e-10 7.66451e-11 2.39604e-10 -7.73091 5.47488 -0.417314 1.38419e-10 7.66425e-11 2.3959e-10 -2.90554 0.965183 -0.102902 1.38419e-10 7.66425e-11 2.39594e-10 -10.2786 0.731801 -0.0259123 1.38427e-10 7.6646e-11 2.39584e-10 -2.22167 -0.733487 0.20892 -2.03217e-16 0.0 -3.88251e-19 -16.8462 -26.6284 6.41071 0.245643 33.2284 0.750473 -5.65715 -5.40055 -20.2465 2.03217e-16 0.0 3.88251e-19 -20.7666 -19.8698 -2.85471 -0.0770212 22.4049 -0.729606 0.563331 -9.06937 -2.19664
50.4034 76.1721 206.985 162.629 -5.6431 -165.878 -25.7748 -17.7692 4.88739 -5.29713 6.64034 1.86933 12.7423 9.85598 11.6201 -10.5512 -1.52038 19.9539 -0.0 0.0 0.0 -0.0 0.0 0.0 -1.34052e-13 2.89941e-13 1.043e-13 68.2786 43.755 2.27991 -11.5808 -5.62149 20.2669 -0.00117274 -1.1062 -0.155481 -4.37064e-10 1.48098e-09 -9.74771e-10 -7.6164e-10 2.57036e-09 -1.68875e-09 -4.37059e-10 1.48098e-09 -9.74778e-10 7.73091 5.47488 0.417314 -4.37063e-10 1.48097e-09 -9.7477e-10 2.90554 0.965183 0.102902 -4.3705e-10 1.48097e-09 -9.74774e-10 10.2786 0.731801 0.0259123 -4.3707e-10 1.48097e-09 -9.7477e-10 2.22167 -0.733487 -0.20892 -1.34284e-13 2.89956e-13 1.04004e-13 -46.6769 42.4891 -8.5551 10.6325 -4.91512 -18.5571 1.65875 -37.7222 6.00812 1.75852e-10 1.43848e-10 3.03861e-10 2.9184e-10 2.53408e-10 5.27005e-10 1.75849e-10 1.43846e-10 3.03865e-10 -7.73091 5.47488 -0.417314 1.75853e-10 1.43844e-10 3.03854e-10 -2.90554 0.965183 -0.102902 1.75854e-10 1.43843e-10 3.03858e-10 -10.2786 0.731801 -0.0259123 1.75859e-10 1.43848e-10 3.0385e-10 -2.22167 -0.733487 0.20892 -2.03217e-16 0.0 -3.88251e-19 -21.283 -37.6849 10.5686 -0.142005 49.4047 1.45165 -10.2571 -8.89243 -29.8369 2.03217e-16 0.0 3.88251e-19 -29.3789 -24.5107 -4.47146 -0.0431651 27.1969 -0.974167 0.434313 -12.1719 -3.23273
50.4211 76.1695 206.99 162.656 -5.6308 -165.864 -30.2641 -21.6236 6.07798 -6.27762 8.09995 2.30918 14.8936 11.773 14.1707 -12.6308 -1.48108 24.1195 -0.0 0.0 0.0 -0.0 0.0 0.0 -1.82157e-13 3.44286e-13 8.91549e-14 82.3631 53.34 3.42167 -13.5929 -6.63743 24.76 -0.00225226 -1.35498 -0.190466 -3.37889e-10 1.30157e-09 -9.15201e-10 -5.91189e-10 2.26089e-09 -1.58605e-09 -3.37885e-10 1.30157e-09 -9.15208e-10 7.73091 5.47488 0.417314 -3.37889e-10 1.30157e-09 -9.15198e-10 2.90554 0.965183 0.102902 -3.37875e-10 1.30157e-09 -9.15204e-10 10.2786 0.731801 0.0259123 -3.37895e-10 1.30157e-09 -9.15201e-10 2.22167 -0.733487 -0.20892 -1.82426e-13 3.44302e-13 8.88567e-14 -54.2991 51.4364 -12.36 12.5356 -5.83137 -22.6514 3.52754 -45.859 8.32682 3.00717e-10 3.09759e-10 1.88884e-10 5.10604e-10 5.42917e-10 3.33622e-10 3.00715e-10 3.09757e-10 1.88887e-10 -7.73091 5.47488 -0.417314 3.00719e-10 3.09755e-10 1.88877e-10 -2.90554 0.965183 -0.102902 3.0072e-10 3.09754e-10 1.8888e-10 -10.2786 0.731801 -0.0259123 3.00724e-10 3.09759e-10 1.88874e-10 -2.22167 -0.733487 0.20892 -2.03217e-16 0.0 -3.88251e-19 -23.0047 -45.1779 14.5098 -0.902785 60.6705 2.37879 -14.1686 -10.7692 -36.6636 2.03217e-16 0.0 3.88251e-19 -35.5513 -27.7329 -5.68511 0.00897126 30.535 -1.16158 0.27591 -14.329 -3.97178
